<svg xmlns="http://www.w3.org/2000/svg" viewBox="0 0 32 32" width="64" height="64">
    <path d="M 0 9 L 0 10 L 6 10 L 6 9 L 0 9 z M 7 9 L 7 10 L 16.1875 10 C 16.1875 10 15.32775 9 13.96875 9 L 7 9 z M 18 9 L 18 10 L 23.1875 10 L 22.875 9 L 18 9 z M 26.96875 9 L 26.6875 10 L 32 10 L 32 9 L 26.96875 9 z M 0 11 L 0 12 L 6 12 L 6 11 L 0 11 z M 7 11 L 7 12 L 17 12 L 16.90625 11.53125 L 16.8125 11.28125 L 16.71875 11.09375 L 16.65625 11 L 7 11 z M 18 11 L 18 12 L 23.78125 12 L 23.46875 11 L 18 11 z M 26.375 11 L 26.09375 12.03125 L 32 12.03125 L 32 11 L 26.375 11 z M 2 13 L 2 14 L 4 14 L 4 13 L 2 13 z M 9 13 L 9 14 L 11 14 L 11 13 L 9 13 z M 14 13 L 14 14 L 16.9375 14 L 16.96875 13.9375 L 17.03125 13.6875 L 17.0625 13.40625 L 17.09375 13.15625 L 17.09375 13 L 14 13 z M 20 13 L 20 14 L 24.375 14 L 24.0625 13 L 20 13 z M 25.78125 13 L 25.5 14 L 30 14 L 30 13 L 25.78125 13 z M 2 15 L 2 16 L 4 16 L 4 15 L 2 15 z M 9 15 L 9 16 L 15.71875 16 L 15.875 15.90625 L 16.0625 15.71875 L 16.1875 15.53125 L 16.34375 15.34375 L 16.5 15.125 L 16.5625 15 L 9 15 z M 20 15 L 20 16 L 22 16 L 22 15.09375 L 22.28125 16 L 27.71875 16 L 28 15.125 L 28 16 L 30 16 L 30 15 L 25.1875 15 L 24.9375 15.875 L 24.65625 15 L 20 15 z M 2 17 L 2 18 L 4 18 L 4 17 L 2 17 z M 9 17 L 9 18 L 16.5625 18 L 16.5 17.875 L 16.34375 17.6875 L 16.1875 17.46875 L 16.0625 17.28125 L 15.875 17.125 L 15.71875 17 L 9 17 z M 20 17 L 20 18 L 22 18 L 22 17 L 20 17 z M 22.8125 17 L 23.125 18 L 26.71875 18 L 27.03125 17 L 22.8125 17 z M 28 17 L 28 18 L 30 18 L 30 17 L 28 17 z M 2 19 L 2 20 L 4 20 L 4 19 L 2 19 z M 9 19 L 9 20 L 11 20 L 11 19 L 9 19 z M 14.25 19 L 14.25 20 L 17.09375 20 L 17.09375 19.84375 L 17.0625 19.59375 L 17.03125 19.34375 L 16.96875 19.09375 L 16.9375 19 L 14.25 19 z M 20 19 L 20 20 L 22 20 L 22 19 L 20 19 z M 23.375 19 L 23.6875 20 L 26.15625 20 L 26.46875 19 L 23.375 19 z M 28 19 L 28 20 L 30 20 L 30 19 L 28 19 z M 0 21 L 0 22 L 6 22 L 6 21 L 0 21 z M 7 21 L 7 22 L 16.6875 22 L 16.71875 21.90625 L 16.8125 21.6875 L 16.90625 21.4375 L 16.96875 21.1875 L 17 21 L 7 21 z M 18 21 L 18 22 L 22 22 L 22 21 L 18 21 z M 23.96875 21 L 24.28125 22 L 25.5625 22 L 25.875 21 L 23.96875 21 z M 28 21 L 28 22 L 32 22 L 32 21 L 28 21 z M 0 23 L 0 24 L 6 24 L 6 23 L 0 23 z M 7 23 L 7 24 L 13.78125 24 L 14 24 L 14.25 23.96875 L 14.46875 23.90625 L 14.6875 23.875 L 14.90625 23.78125 L 15.09375 23.6875 L 15.3125 23.5625 L 15.5 23.46875 L 15.6875 23.3125 L 15.875 23.15625 L 16.0625 23 L 7 23 z M 18 23 L 18 24 L 22 24 L 22 23 L 18 23 z M 24.5625 23 L 24.84375 24 L 25 24 L 25.28125 23 L 24.5625 23 z M 28 23 L 28 24 L 32 24 L 32 23 L 28 23 z"/>
</svg>